<?xml version="1.0" standalone="no"?>
<!DOCTYPE svg PUBLIC "-//W3C//DTD SVG 20010904//EN"
 "http://www.w3.org/TR/2001/REC-SVG-20010904/DTD/svg10.dtd">
<svg version="1.0" xmlns="http://www.w3.org/2000/svg"
 width="541.000000pt" height="541.000000pt" viewBox="0 0 541.000000 541.000000"
 preserveAspectRatio="xMidYMid meet">
<metadata>
Created by potrace 1.11, written by Peter Selinger 2001-2013
</metadata>
<g transform="translate(0.000000,541.000000) scale(0.100000,-0.100000)"
fill="#000000" stroke="none">
<path d="M2498 5142 c-22 -3 -28 -9 -29 -28 -2 -33 -3 -37 -13 -53 -6 -9 -5
-12 1 -8 5 3 10 0 10 -8 0 -8 -4 -12 -9 -9 -7 4 -13 -43 -9 -68 0 -5 -4 -8 -9
-8 -6 0 -10 -6 -9 -12 4 -34 -2 -89 -10 -84 -4 3 -7 -6 -5 -19 1 -14 -4 -50
-11 -80 -7 -30 -10 -55 -7 -55 2 0 -2 -8 -9 -17 -10 -11 -10 -14 -1 -9 6 4 12
2 12 -3 0 -6 -4 -11 -8 -11 -5 0 -9 -19 -10 -42 -1 -24 -7 -45 -12 -46 -6 -2
-8 -8 -4 -13 3 -5 0 -9 -6 -9 -6 0 -9 -4 -6 -8 3 -5 -1 -9 -9 -9 -8 0 -11 5
-8 11 4 6 -1 5 -10 -3 -9 -7 -17 -11 -17 -8 0 3 -27 -1 -61 -9 -33 -8 -65 -11
-71 -8 -7 4 -8 2 -4 -4 5 -8 -4 -12 -29 -12 -23 0 -34 -4 -30 -11 4 -6 1 -9
-6 -8 -22 4 -79 -12 -79 -22 0 -5 -5 -9 -11 -9 -5 0 -7 6 -3 13 5 7 1 6 -10
-3 -16 -13 -20 -12 -31 4 -8 10 -30 35 -49 57 -20 21 -36 43 -36 49 0 6 -4 9
-8 6 -5 -3 -16 4 -25 15 -9 10 -14 19 -11 19 3 0 -8 15 -25 33 -51 53 -105
113 -121 134 -8 11 -24 25 -35 31 -11 6 -15 12 -8 12 14 0 -61 80 -75 80 -18
0 -74 -32 -79 -45 -2 -8 -11 -11 -19 -8 -8 3 -14 1 -14 -3 0 -9 -56 -38 -75
-39 -5 -1 -9 -7 -7 -15 2 -8 0 -12 -4 -8 -7 8 -86 -31 -92 -44 -2 -5 -10 -8
-17 -8 -8 0 -21 -8 -31 -17 -10 -10 -20 -17 -23 -16 -3 1 -4 -8 -3 -20 2 -12
8 -24 13 -25 5 -2 7 -8 3 -13 -3 -5 0 -9 6 -9 7 0 10 -7 6 -15 -3 -8 -1 -15 4
-15 5 0 7 -7 4 -15 -4 -8 -1 -15 5 -15 6 0 11 -9 11 -19 0 -11 5 -23 10 -26 6
-3 10 -17 10 -31 0 -13 5 -24 10 -24 6 0 10 -10 10 -23 0 -13 5 -28 11 -34 10
-10 17 -32 18 -61 1 -8 6 -10 14 -6 9 6 9 5 0 -8 -11 -12 -9 -18 7 -33 11 -10
17 -21 15 -26 -3 -4 -1 -10 5 -14 5 -3 10 -20 10 -36 0 -18 4 -28 10 -24 6 3
10 -5 10 -19 0 -14 5 -28 11 -31 6 -4 -11 -25 -38 -48 -26 -23 -92 -86 -145
-139 -86 -87 -121 -117 -104 -89 3 5 -7 11 -22 14 -47 9 -72 16 -85 24 -6 4
-16 8 -22 8 -5 1 -23 7 -39 13 -16 7 -36 14 -45 15 -9 2 -31 10 -49 19 -18 9
-29 12 -26 6 4 -5 -5 -3 -18 6 -14 9 -28 13 -31 9 -4 -3 -7 -1 -7 6 0 8 -8 11
-20 8 -11 -3 -20 -1 -20 4 0 5 -11 9 -25 9 -14 0 -25 5 -25 10 0 6 -3 9 -7 9
-5 -1 -11 0 -15 1 -5 1 -11 3 -15 4 -5 1 -23 7 -40 15 -31 12 -93 8 -79 -6 3
-3 -6 -21 -20 -40 -14 -18 -22 -33 -19 -33 3 0 -3 -10 -14 -22 -11 -11 -18
-25 -15 -30 3 -4 1 -8 -4 -8 -8 0 -36 -50 -32 -59 1 -2 -5 -8 -14 -13 -9 -5
-16 -16 -16 -23 0 -8 -4 -15 -10 -15 -5 0 -10 -5 -10 -11 0 -6 -10 -25 -22
-42 -13 -18 -21 -34 -18 -37 30 -34 46 -47 52 -43 4 2 12 -6 18 -17 6 -11 17
-20 25 -20 7 0 15 -3 17 -8 2 -4 26 -25 53 -47 28 -22 57 -48 66 -57 9 -10 21
-18 26 -18 5 0 20 -11 33 -25 13 -14 30 -25 37 -25 8 0 12 -4 8 -9 -3 -5 3
-12 12 -15 10 -4 36 -22 58 -41 22 -19 46 -40 53 -45 15 -13 16 -40 1 -40 -5
0 -8 -4 -5 -9 8 -13 -14 -71 -27 -71 -7 0 -5 -5 3 -10 10 -6 11 -10 3 -10 -7
0 -13 -11 -13 -24 0 -14 -4 -27 -8 -30 -4 -2 -9 -19 -10 -37 -2 -18 -6 -36
-10 -39 -4 -3 -8 -23 -10 -44 -1 -24 -10 -47 -22 -58 -11 -10 -20 -14 -20 -8
0 7 -6 8 -17 2 -10 -5 -26 -8 -35 -7 -10 2 -18 0 -18 -4 0 -4 -15 -8 -32 -9
-49 -4 -67 -7 -74 -15 -12 -12 -26 -8 -18 6 6 9 4 9 -8 -1 -9 -7 -22 -12 -30
-11 -27 3 -39 -1 -32 -13 5 -7 3 -8 -7 -2 -19 12 -39 14 -39 4 0 -5 -8 -7 -17
-6 -10 2 -31 -1 -47 -5 -16 -5 -46 -9 -67 -11 -22 -1 -39 -5 -39 -8 0 -5 -35
-10 -87 -13 -13 0 -23 -122 -11 -140 4 -6 4 -15 1 -20 -3 -5 -5 -40 -5 -78 1
-38 1 -96 1 -129 1 -35 5 -60 12 -60 5 0 7 6 3 13 -6 9 -5 9 7 0 8 -6 28 -12
44 -14 17 -2 36 -8 44 -14 11 -8 13 -7 7 3 -7 12 -4 12 14 2 12 -6 28 -9 36
-6 8 3 14 0 14 -6 0 -6 6 -5 17 3 11 10 14 10 9 2 -5 -10 3 -13 31 -15 36 -1
48 -3 66 -8 18 -6 29 -8 63 -9 19 0 33 -4 31 -8 -3 -5 12 -7 34 -7 21 1 39 -3
39 -8 0 -6 8 -4 17 3 9 8 14 9 10 3 -4 -7 5 -11 24 -12 17 0 36 -6 44 -12 9
-7 15 -8 20 -1 9 15 34 -10 27 -28 -3 -8 -1 -12 5 -8 7 5 10 -7 8 -33 -2 -26
1 -37 8 -33 6 4 8 0 4 -10 -3 -9 -2 -19 3 -22 5 -3 7 -12 3 -20 -3 -8 -1 -15
4 -15 5 0 10 -14 11 -32 2 -18 6 -35 10 -38 4 -3 9 -16 11 -30 1 -14 8 -28 15
-32 6 -4 7 -8 2 -8 -6 0 -5 -5 2 -12 15 -15 16 -48 1 -48 -5 0 -7 -4 -4 -10 3
-5 1 -10 -6 -10 -7 0 -19 -7 -28 -15 -52 -47 -61 -54 -61 -50 0 3 -6 0 -14 -7
-8 -7 -11 -17 -8 -22 3 -5 1 -6 -5 -3 -6 4 -29 -11 -52 -32 -22 -21 -43 -36
-46 -33 -3 3 -5 -1 -5 -8 0 -7 -3 -11 -6 -8 -3 3 -20 -8 -38 -25 -18 -18 -43
-39 -56 -47 -12 -8 -35 -26 -50 -40 -15 -14 -35 -30 -45 -36 -35 -20 -40 -40
-17 -65 12 -12 22 -29 22 -36 0 -14 37 -73 54 -84 5 -4 5 -12 1 -19 -5 -8 -4
-11 2 -7 5 3 22 -19 38 -49 16 -29 32 -54 37 -54 4 0 8 -9 8 -20 0 -11 4 -20
9 -20 5 0 13 -9 16 -21 5 -13 10 -17 18 -11 7 5 20 8 30 7 9 -2 15 1 11 6 -4
8 25 14 49 10 4 0 7 4 7 9 0 5 3 9 8 8 7 -1 26 5 67 22 20 8 71 22 90 25 6 0
9 6 8 11 -1 7 8 9 22 6 14 -2 25 0 25 5 0 5 7 10 15 11 8 1 22 3 30 4 8 1 15
6 15 11 0 5 7 7 15 3 8 -3 15 -2 15 3 0 4 7 8 15 9 8 1 22 3 30 4 8 1 15 6 15
11 0 5 6 7 13 4 7 -3 21 1 31 9 11 7 23 11 27 8 5 -3 9 -1 9 4 0 5 11 7 25 4
14 -2 25 -8 25 -13 0 -9 120 -130 203 -203 41 -37 53 -53 47 -65 -4 -9 -13
-29 -20 -46 -7 -16 -16 -38 -22 -48 -5 -10 -6 -22 -3 -27 4 -6 1 -10 -4 -10
-6 0 -11 -7 -11 -15 0 -8 -4 -23 -9 -33 -10 -19 -24 -53 -25 -64 -1 -3 -4 -10
-9 -14 -4 -4 -7 -16 -7 -26 0 -10 -4 -18 -10 -18 -5 0 -9 -3 -9 -7 5 -29 -2
-53 -13 -47 -7 4 -10 4 -6 -1 4 -4 1 -23 -7 -41 -8 -19 -11 -34 -7 -34 4 0 1
-4 -5 -8 -7 -4 -14 -17 -16 -27 -2 -11 -8 -29 -15 -41 -12 -23 0 -44 26 -44 8
0 23 -10 33 -21 11 -13 25 -19 34 -15 9 3 14 2 12 -2 -3 -4 1 -13 9 -20 8 -7
14 -8 14 -2 0 5 9 2 20 -8 12 -9 24 -17 28 -16 4 0 12 -4 17 -8 30 -25 88 -58
100 -58 8 0 15 -4 15 -8 0 -4 13 -13 30 -19 27 -10 32 -9 63 28 19 21 38 35
42 31 5 -4 5 -1 1 6 -4 7 -1 15 9 18 9 4 14 13 11 21 -3 8 -2 12 3 9 7 -5 58
45 53 52 -2 2 8 12 22 23 15 11 26 27 26 35 0 8 4 13 9 9 5 -3 18 8 27 24 10
17 21 28 26 25 4 -3 8 1 8 8 0 8 9 20 20 28 11 8 20 18 20 21 0 4 21 29 46 55
l46 48 46 -18 c26 -10 57 -17 70 -17 13 0 21 -3 17 -8 -3 -6 3 -10 12 -10 10
0 27 -2 38 -5 11 -2 30 -5 43 -5 13 -1 21 -4 19 -8 -3 -5 16 -9 42 -11 25 -1
48 -7 49 -13 3 -6 10 -5 20 3 9 8 13 8 9 2 -4 -7 0 -15 9 -18 14 -5 14 -9 3
-23 -10 -12 -10 -14 -1 -9 9 5 12 -4 12 -36 0 -27 3 -38 9 -30 5 9 8 -1 7 -25
-1 -21 3 -51 9 -68 7 -16 10 -36 7 -43 -2 -7 -1 -20 3 -30 6 -14 14 -61 17
-109 1 -7 4 -13 7 -13 3 0 7 -21 9 -48 1 -26 7 -49 13 -50 6 -3 5 -10 -3 -20
-10 -12 -10 -14 0 -8 8 5 12 -1 13 -21 1 -15 0 -32 -1 -38 -1 -5 2 -7 6 -3 4
4 13 3 21 -3 9 -9 13 -8 13 0 0 8 6 9 18 2 11 -6 24 -6 35 0 12 7 17 6 17 -2
0 -8 4 -8 15 1 8 7 15 8 15 3 0 -10 52 -9 69 2 6 3 11 1 11 -6 0 -8 4 -8 16 2
13 10 17 10 24 0 5 -9 10 -10 14 -2 5 8 13 8 28 0 16 -8 19 -8 13 1 -6 9 -2 9
14 1 11 -7 21 -8 21 -3 0 4 9 8 20 8 11 0 20 -3 20 -6 0 -4 7 -7 15 -7 8 0 15
4 15 9 0 4 7 8 16 8 9 0 14 6 11 13 -4 12 15 121 27 153 3 8 2 13 -2 10 -5 -3
-9 1 -9 9 0 8 4 12 9 9 4 -3 9 9 9 25 2 31 4 49 9 54 1 1 4 11 5 22 1 11 6 36
9 55 4 19 9 55 12 80 3 24 8 47 12 50 4 3 7 16 6 30 -1 14 3 28 10 32 7 5 7 8
-3 8 -18 0 29 37 49 38 27 2 65 10 84 18 15 6 17 4 11 -7 -7 -12 -6 -12 7 -1
15 12 55 24 86 25 6 0 12 5 12 10 0 6 3 8 6 4 3 -3 18 -1 33 5 14 5 37 12 51
15 13 2 27 8 30 13 3 4 13 3 22 -4 10 -7 15 -16 11 -19 -3 -4 2 -7 12 -7 10 0
16 -3 13 -6 -6 -5 17 -34 95 -116 20 -22 37 -42 37 -45 0 -2 16 -20 35 -39 20
-19 33 -34 30 -34 -2 0 16 -20 41 -45 26 -26 42 -50 38 -57 -4 -6 -3 -9 2 -5
5 3 25 -12 43 -34 27 -30 37 -36 48 -28 10 9 13 8 13 -1 0 -7 9 -3 20 10 11
13 20 19 20 15 0 -4 8 -2 18 6 29 24 79 49 99 49 15 0 16 2 3 10 -12 8 -11 10
8 10 12 0 22 4 22 10 0 5 3 10 8 9 15 -2 52 14 52 23 0 5 4 7 9 4 5 -4 11 -2
13 3 1 5 10 11 18 13 8 2 19 7 25 11 38 29 48 38 37 32 -6 -3 -13 -1 -13 4 -2
14 -6 29 -9 36 -1 3 -3 8 -5 13 -1 4 -5 21 -10 37 -4 17 -12 33 -17 36 -5 3
-10 16 -11 27 -1 12 -5 22 -9 22 -4 0 -8 11 -8 25 0 14 -5 25 -11 25 -7 0 -9
10 -7 25 3 13 1 22 -3 19 -8 -5 -13 10 -10 29 0 4 -4 7 -11 7 -6 0 -9 3 -5 6
3 4 0 19 -9 35 -8 16 -11 29 -7 29 5 0 3 4 -2 8 -12 8 -35 71 -35 96 0 9 -5
14 -10 11 -6 -3 -10 5 -10 19 0 13 -4 26 -10 28 -5 2 8 19 30 39 22 21 40 34
40 31 0 -3 47 43 105 102 75 76 109 105 118 98 7 -5 20 -8 30 -7 9 2 15 -1 11
-6 -5 -9 16 -13 45 -10 7 2 10 -2 6 -8 -4 -7 3 -11 18 -11 13 0 27 -3 31 -7 3
-4 13 -8 21 -10 8 -2 21 -4 29 -6 8 -2 22 -9 32 -17 16 -13 17 -13 9 0 -8 13
-7 13 10 0 10 -8 20 -14 22 -12 2 1 19 -5 39 -13 20 -8 45 -15 55 -15 11 0 19
-4 19 -8 0 -4 12 -9 27 -10 15 -1 30 -7 34 -14 4 -6 14 -8 22 -5 9 3 17 1 19
-4 2 -6 10 -11 18 -12 8 -2 21 -6 28 -11 7 -4 24 -5 38 -2 22 6 26 12 23 32 0
4 3 10 8 13 17 12 73 108 73 124 0 10 3 16 8 14 4 -1 8 2 9 7 1 5 5 12 10 15
4 3 15 15 23 25 13 18 13 19 0 11 -8 -4 -3 5 11 21 36 40 58 96 40 102 -7 2
-21 13 -29 23 -9 11 -20 19 -25 19 -5 0 -21 13 -37 30 -15 16 -30 26 -34 23
-3 -3 -6 -1 -6 6 0 7 -4 9 -10 6 -5 -3 -10 -2 -10 4 0 5 -33 34 -72 65 -78 59
-126 98 -164 133 -13 12 -24 20 -24 17 0 -3 -10 4 -22 16 -21 20 -33 50 -19
50 4 0 7 10 8 22 1 11 8 25 15 29 10 7 10 9 -2 9 -10 0 -11 3 -4 8 10 6 23 42
40 105 1 4 2 19 3 33 0 14 5 23 9 20 4 -2 9 10 10 28 3 42 10 77 17 84 3 3 27
8 53 10 26 2 50 9 54 15 6 9 8 8 8 -1 0 -7 4 -10 10 -7 12 7 45 14 83 17 15 1
27 5 27 9 0 3 12 5 27 3 15 -1 34 3 42 9 12 10 13 9 6 -3 -7 -12 -6 -13 6 -4
12 10 45 16 154 29 17 2 30 4 30 5 0 1 11 4 25 6 52 6 70 10 75 16 4 3 6 30 6
59 1 30 6 60 12 68 9 11 9 13 1 8 -9 -5 -12 29 -12 126 0 72 -1 137 -1 142 -1
6 -11 12 -23 13 -40 5 -63 9 -63 12 0 1 -13 4 -30 6 -52 6 -90 12 -90 14 0 1
-14 3 -32 4 -18 1 -35 5 -39 9 -4 4 -14 1 -22 -6 -13 -9 -14 -9 -8 1 5 9 -3
12 -33 12 -22 0 -43 5 -46 10 -5 8 -12 7 -23 -2 -9 -8 -13 -8 -9 -1 5 7 -8 13
-41 16 -26 3 -63 8 -82 12 -19 5 -43 8 -52 9 -10 0 -18 3 -19 6 0 3 -2 14 -4
25 -3 11 -5 34 -7 52 -1 17 -6 29 -10 27 -4 -3 -8 10 -8 29 0 18 -3 37 -7 41
-4 3 -8 16 -10 28 -2 12 -9 28 -16 37 -10 12 -9 13 3 6 12 -7 13 -6 3 7 -7 8
-10 18 -6 21 3 4 -2 9 -11 13 -9 3 -13 10 -10 15 3 6 0 17 -8 26 -11 14 -11
16 2 8 12 -6 13 -5 3 6 -12 12 -19 38 -8 27 3 -3 19 6 34 21 16 14 46 40 66
56 21 17 44 36 51 43 8 7 14 11 14 7 0 -3 6 0 14 7 8 7 11 17 8 22 -3 5 0 6 5
3 6 -4 22 5 36 19 16 16 31 23 39 18 7 -4 10 -4 6 1 -8 9 9 25 84 83 27 20 48
43 48 52 0 11 2 12 8 3 6 -9 13 -7 27 10 26 30 27 46 4 70 -10 11 -19 25 -19
29 0 10 -51 90 -63 99 -5 3 -9 9 -9 12 0 19 -12 47 -19 47 -5 0 -9 7 -9 15 0
8 -4 15 -10 15 -5 0 -10 7 -10 15 0 8 -4 15 -8 15 -4 0 -13 14 -19 30 -10 27
-15 30 -45 26 -31 -4 -79 -18 -123 -36 -45 -18 -61 -23 -72 -21 -7 1 -13 -3
-13 -9 0 -5 -10 -10 -23 -10 -13 0 -27 -3 -30 -7 -11 -10 -107 -43 -128 -43
-5 0 -7 -5 -3 -12 5 -8 2 -9 -9 -5 -9 3 -33 -1 -54 -10 -21 -9 -49 -18 -63
-20 -14 -3 -26 -8 -28 -14 -2 -5 -8 -9 -13 -9 -6 0 -8 4 -5 8 3 5 -6 15 -19
22 -14 7 -25 19 -25 27 0 7 -7 13 -15 13 -8 0 -15 5 -15 10 0 14 -37 50 -44
43 -3 -4 -6 1 -6 11 0 9 -4 14 -10 11 -5 -3 -10 1 -10 9 0 9 -5 16 -10 16 -6
0 -26 16 -45 36 -19 20 -35 32 -35 28 0 -4 -9 3 -19 15 -11 12 -18 30 -16 39
2 9 4 23 4 30 1 7 5 11 9 8 4 -2 9 7 10 22 1 14 6 28 11 32 10 5 22 48 24 82
1 9 4 15 7 13 3 -2 10 8 17 21 8 18 8 22 0 17 -7 -3 -4 3 6 15 11 11 16 25 13
31 -4 5 2 14 11 20 10 6 13 11 7 11 -8 0 -5 13 7 37 10 21 19 45 19 55 0 10 5
18 10 18 6 0 10 11 10 25 0 14 5 25 10 25 6 0 10 8 10 18 0 10 8 28 17 41 9
14 11 21 5 17 -7 -4 -12 -2 -12 3 0 6 -7 11 -15 11 -8 0 -15 4 -15 8 0 5 -16
14 -35 22 -19 8 -35 17 -35 22 0 4 -9 8 -20 8 -11 0 -20 4 -20 8 0 5 -16 14
-35 22 -19 8 -35 17 -35 22 0 4 -9 8 -19 8 -11 0 -22 4 -26 9 -3 5 -30 22 -59
37 -51 25 -55 26 -71 11 -9 -10 -14 -17 -10 -17 3 0 0 -6 -7 -14 -7 -8 -16
-12 -20 -9 -5 2 -8 -3 -8 -11 0 -8 -10 -22 -22 -30 -12 -9 -20 -16 -16 -16 10
0 -56 -67 -72 -73 -8 -3 -10 -6 -3 -6 7 -1 -8 -21 -32 -45 -25 -24 -45 -47
-45 -50 0 -4 -16 -22 -35 -40 -19 -19 -35 -39 -35 -45 0 -6 -8 -11 -17 -11 -9
0 -14 -3 -10 -6 8 -8 -44 -64 -60 -64 -7 0 -13 4 -13 8 0 4 -12 9 -26 10 -15
1 -33 7 -40 13 -8 6 -14 8 -14 4 0 -4 -8 -1 -17 6 -10 9 -14 9 -10 2 5 -9 0
-8 -19 2 -15 7 -33 11 -40 8 -8 -3 -14 0 -14 5 0 6 -8 11 -17 11 -39 1 -99 14
-110 23 -9 7 -13 7 -13 -1 0 -8 -8 -6 -23 4 -15 9 -23 24 -22 38 1 12 -2 30
-6 39 -6 10 -5 19 1 23 8 5 7 12 -2 22 -7 9 -13 30 -14 47 -1 17 -3 31 -4 31
-3 0 -9 37 -12 75 -2 19 -6 37 -10 40 -4 3 -8 25 -9 48 -2 23 -6 42 -10 42 -4
0 -6 16 -5 35 1 19 -2 35 -6 35 -4 0 -5 7 -2 15 4 8 2 15 -3 15 -4 0 -8 16 -7
36 1 21 -3 37 -11 40 -14 6 -366 11 -407 6z m353 -1016 c15 -2 33 -7 40 -12 7
-4 10 -3 6 3 -3 5 0 10 8 10 8 0 12 -4 9 -9 -4 -5 0 -8 7 -7 8 2 39 -1 69 -6
30 -5 61 -8 68 -6 6 1 12 -3 12 -9 0 -5 14 -10 31 -10 17 0 28 -4 24 -10 -3
-5 0 -7 7 -5 8 3 32 -1 55 -9 23 -8 45 -11 49 -8 4 4 4 1 0 -5 -5 -9 1 -13 18
-13 14 0 26 -4 26 -10 0 -5 7 -7 15 -4 8 4 15 1 15 -5 0 -6 9 -11 20 -11 11 0
20 -5 20 -12 0 -6 3 -9 6 -5 6 6 84 -33 112 -55 13 -11 15 -10 8 2 -6 12 -5
12 6 -1 7 -8 29 -24 48 -35 19 -10 39 -25 43 -31 4 -7 13 -13 18 -13 18 0 59
-37 51 -45 -4 -5 -2 -5 4 -2 6 3 28 -9 49 -28 20 -19 41 -32 46 -29 5 3 8 2 7
-3 -2 -5 21 -32 50 -60 28 -29 52 -56 52 -61 0 -5 11 -18 25 -28 14 -10 25
-23 25 -27 0 -13 27 -37 34 -30 3 4 6 -3 6 -14 0 -12 7 -23 15 -27 8 -3 15
-13 15 -22 0 -9 8 -24 18 -33 26 -25 102 -164 102 -188 0 -7 5 -13 10 -13 6 0
10 -9 10 -20 0 -11 4 -20 8 -20 4 0 9 -10 9 -22 1 -13 7 -24 13 -26 5 -2 7 -8
4 -13 -3 -6 0 -20 8 -32 8 -12 13 -32 12 -44 -1 -13 2 -23 5 -23 4 0 8 -12 9
-27 1 -15 8 -30 15 -35 9 -6 9 -8 -2 -8 -11 0 -11 -3 -1 -14 6 -8 11 -23 10
-33 -1 -10 -1 -20 0 -23 8 -21 12 -55 13 -112 1 -38 6 -68 11 -68 6 0 5 -5 -2
-12 -9 -9 -9 -15 1 -27 9 -12 9 -13 0 -7 -7 4 -13 3 -13 -3 0 -5 5 -13 10 -16
6 -4 7 -12 3 -18 -4 -7 -8 -34 -9 -62 -1 -27 -5 -68 -8 -90 -4 -22 -8 -47 -8
-55 0 -8 -6 -21 -12 -29 -8 -11 -8 -13 1 -8 9 5 8 -3 -3 -28 -8 -20 -12 -40
-9 -45 4 -6 1 -10 -6 -10 -7 0 -9 -3 -6 -6 3 -4 2 -15 -4 -25 -7 -13 -6 -19 1
-19 6 0 4 -7 -4 -16 -9 -8 -16 -18 -17 -22 -3 -33 -11 -58 -19 -60 -6 -2 -10
-12 -10 -22 0 -10 -4 -22 -10 -25 -5 -3 -10 -15 -10 -25 0 -10 -5 -20 -11 -22
-5 -2 -11 -12 -13 -21 -1 -10 -8 -22 -15 -26 -7 -5 -12 -12 -12 -17 2 -13 -31
-75 -51 -98 -10 -11 -18 -23 -18 -27 0 -5 -10 -17 -22 -29 -12 -11 -18 -20
-13 -20 4 0 -3 -9 -16 -21 -13 -12 -23 -25 -21 -30 1 -5 -6 -9 -15 -9 -15 0
-16 -2 -3 -10 9 -6 11 -10 3 -10 -15 0 -83 -67 -83 -81 0 -5 -11 -14 -25 -21
-13 -6 -22 -15 -19 -19 3 -5 0 -9 -6 -9 -7 0 -30 -17 -51 -37 -22 -21 -42 -36
-45 -33 -3 3 -10 -3 -15 -12 -6 -10 -17 -18 -25 -18 -8 0 -12 -4 -9 -10 3 -5
-1 -10 -9 -10 -9 0 -16 -5 -16 -11 0 -5 -4 -7 -10 -4 -5 3 -10 2 -10 -4 0 -6
-11 -13 -25 -17 -14 -3 -25 -10 -25 -14 0 -5 -18 -16 -40 -26 -22 -10 -40 -21
-40 -26 0 -4 -3 -7 -7 -7 -19 3 -34 -2 -29 -9 2 -4 -5 -9 -16 -9 -11 -1 -30
-10 -41 -20 -11 -10 -17 -13 -14 -6 4 6 -14 1 -40 -13 -27 -13 -58 -24 -70
-24 -13 0 -23 -4 -23 -10 0 -5 -12 -10 -26 -10 -17 0 -23 -4 -18 -12 5 -9 2
-9 -9 1 -11 9 -17 10 -17 2 0 -6 -3 -10 -7 -9 -5 1 -26 -2 -48 -7 -22 -4 -48
-9 -58 -11 -9 -1 -21 -5 -25 -8 -5 -3 -26 -6 -46 -8 -21 -1 -40 -6 -43 -11 -2
-4 -12 -2 -21 5 -12 10 -14 10 -8 1 4 -7 2 -13 -3 -13 -6 0 -11 6 -11 13 0 9
-2 9 -8 0 -8 -12 -296 -18 -315 -6 -17 11 -58 13 -52 3 3 -5 -6 -3 -21 5 -15
7 -33 11 -40 8 -8 -3 -14 1 -14 8 0 11 -3 11 -10 -1 -5 -8 -10 -10 -10 -4 0
10 -61 23 -122 27 -9 1 -15 4 -12 8 4 7 -67 23 -82 19 -4 -1 -10 3 -14 10 -4
6 -17 12 -28 13 -12 1 -22 5 -22 9 0 4 -7 8 -15 8 -8 0 -15 5 -15 11 0 5 -5 7
-10 4 -6 -4 -23 1 -38 11 -15 10 -30 19 -34 20 -5 1 -11 3 -15 4 -5 1 -11 2
-15 1 -5 0 -8 3 -8 7 0 5 -18 16 -40 26 -22 10 -38 21 -35 26 3 5 -4 7 -15 5
-11 -2 -18 0 -15 6 4 5 1 9 -6 9 -6 0 -27 14 -46 30 -19 17 -39 27 -45 24 -7
-4 -8 -2 -4 4 4 7 3 12 -2 12 -10 0 -51 34 -103 85 -14 14 -32 25 -39 25 -7 0
-11 3 -8 6 3 3 -16 28 -43 55 -27 27 -49 54 -49 59 0 6 -7 10 -16 10 -8 0 -12
5 -9 10 3 6 2 10 -3 10 -5 0 -12 8 -16 18 -10 27 -53 82 -60 75 -3 -4 -6 3 -6
14 0 11 -9 30 -20 43 -11 12 -17 27 -14 32 3 4 0 7 -8 6 -7 -2 -12 3 -10 10 1
7 -7 25 -18 39 -11 14 -17 29 -14 34 3 5 0 9 -5 9 -6 0 -11 9 -11 20 0 11 -4
20 -8 20 -4 0 -16 27 -25 60 -13 41 -22 58 -30 53 -7 -4 -6 0 2 10 7 9 9 17 3
17 -5 0 -12 12 -15 28 -9 47 -17 81 -25 104 -5 13 -8 38 -8 56 1 17 -3 32 -8
32 -5 0 -2 8 5 17 10 11 10 14 2 9 -13 -7 -14 9 -15 159 0 22 -5 46 -12 54 -8
11 -8 13 0 8 8 -4 12 10 13 46 2 28 3 59 3 67 0 8 6 21 12 29 9 12 8 13 -3 6
-10 -6 -12 -4 -6 5 4 7 10 31 12 53 2 22 7 45 11 51 5 6 8 23 7 38 0 15 3 24
7 22 4 -3 9 5 10 18 2 37 3 42 16 65 7 12 13 31 15 43 2 12 8 25 14 28 6 4 9
15 7 25 -1 9 2 17 7 17 5 0 9 7 9 16 0 9 9 28 20 44 11 15 17 30 13 34 -3 3
-1 6 5 6 7 0 12 9 12 21 0 11 4 18 8 15 4 -2 14 10 21 27 8 18 23 42 34 55 11
12 17 22 12 22 -4 0 2 9 15 20 13 11 20 20 16 20 -4 0 -1 6 6 14 7 8 17 11 22
8 5 -3 6 -1 3 5 -3 5 9 26 28 46 19 21 33 37 30 37 -3 0 14 17 37 38 23 20 59
54 80 75 21 20 43 37 49 37 6 0 7 5 4 10 -3 6 1 10 9 10 9 0 16 5 16 11 0 5 4
8 9 5 5 -3 12 1 15 9 3 9 17 20 31 25 14 5 25 14 25 20 0 6 5 8 10 5 6 -3 13
1 16 9 3 9 15 16 25 16 10 0 19 4 19 10 0 5 11 12 25 16 14 3 25 10 25 15 0 5
7 9 15 9 8 0 15 4 15 9 0 6 9 8 20 6 11 -2 20 0 20 4 0 14 96 57 136 60 8 0
13 5 10 9 -3 5 0 9 7 10 40 3 57 7 57 12 0 4 6 7 13 8 11 0 44 8 72 16 6 2 17
6 25 9 8 4 35 9 60 11 25 2 46 5 48 6 1 2 11 3 21 4 11 0 23 4 27 9 11 11 26
9 19 -3 -3 -5 -1 -10 4 -10 6 0 11 4 11 8 0 5 21 10 47 11 26 1 48 3 49 4 5 4
212 -2 245 -7z"/>
<path d="M3120 3540 c-86 -18 -132 -33 -228 -72 l-54 -22 7 -41 c4 -22 9 -53
12 -70 2 -16 8 -33 12 -38 4 -4 47 11 96 34 154 73 332 93 429 50 102 -45 167
-142 172 -256 4 -119 -46 -238 -174 -415 -61 -83 -234 -295 -261 -320 -6 -5
-56 -60 -183 -200 -42 -47 -97 -107 -122 -135 -47 -51 -48 -55 -49 -160 l0
-40 509 0 509 0 0 70 -1 70 -397 5 -398 5 33 36 c18 20 67 74 108 119 41 46
82 90 91 99 37 38 187 210 219 251 19 25 37 47 41 50 3 3 30 39 60 80 180 246
233 422 188 615 -34 141 -155 248 -324 286 -84 18 -203 18 -295 -1z"/>
<path d="M2042 3408 c-49 -73 -220 -328 -380 -567 l-292 -435 1 -83 1 -83 401
-2 402 -3 1 -190 1 -190 86 -3 87 -3 0 196 0 195 124 0 123 0 1 75 0 75 -124
0 -124 0 0 575 0 575 -110 0 -110 0 -88 -132z m134 -538 l0 -480 -318 0 c-175
0 -318 2 -318 5 0 3 53 85 118 183 66 97 207 311 315 475 108 163 198 297 200
297 1 0 3 -216 3 -480z"/>
</g>
</svg>
